<svg width="21" height="20" viewBox="0 0 21 20" fill="none" xmlns="http://www.w3.org/2000/svg">
<path d="M18.4422 17.0578L14.5305 13.1469C15.6642 11.7857 16.2296 10.0398 16.1089 8.27245C15.9883 6.50506 15.1909 4.85223 13.8826 3.65779C12.5744 2.46335 10.856 1.81926 9.08492 1.85951C7.31388 1.89976 5.62653 2.62125 4.37389 3.87389C3.12125 5.12654 2.39976 6.81388 2.35951 8.58493C2.31926 10.356 2.96334 12.0744 4.15779 13.3826C5.35223 14.6909 7.00506 15.4883 8.77244 15.6089C10.5398 15.7296 12.2857 15.1642 13.6469 14.0305L17.5578 17.9422C17.6159 18.0003 17.6848 18.0463 17.7607 18.0777C17.8366 18.1092 17.9179 18.1254 18 18.1254C18.0821 18.1254 18.1634 18.1092 18.2393 18.0777C18.3152 18.0463 18.3841 18.0003 18.4422 17.9422C18.5003 17.8841 18.5463 17.8152 18.5777 17.7393C18.6092 17.6634 18.6253 17.5821 18.6253 17.5C18.6253 17.4179 18.6092 17.3366 18.5777 17.2607C18.5463 17.1848 18.5003 17.1159 18.4422 17.0578ZM3.625 8.75C3.625 7.63748 3.9549 6.54995 4.57298 5.62492C5.19106 4.69989 6.06957 3.97892 7.0974 3.55318C8.12524 3.12744 9.25623 3.01604 10.3474 3.23309C11.4385 3.45013 12.4408 3.98586 13.2275 4.77253C14.0141 5.5592 14.5499 6.56148 14.7669 7.65262C14.984 8.74376 14.8726 9.87476 14.4468 10.9026C14.0211 11.9304 13.3001 12.8089 12.3751 13.427C11.4501 14.0451 10.3625 14.375 9.25 14.375C7.75866 14.3733 6.32888 13.7802 5.27435 12.7257C4.21981 11.6711 3.62665 10.2413 3.625 8.75Z" fill="black"/>
</svg>
